<svg width="109" height="42" viewBox="0 0 109 42" fill="none" xmlns="http://www.w3.org/2000/svg">
<path d="M13.8658 3.79084L13.8155 11.3222C13.8043 13.0028 15.1576 14.3743 16.8382 14.3855L33.6835 14.498C36.3945 14.5161 37.7741 11.2474 35.8699 9.31764L28.3889 1.73602C27.822 1.16154 27.0502 0.835767 26.2431 0.830377L16.9291 0.768175C15.2485 0.756951 13.8771 2.11024 13.8658 3.79084Z" fill="#457B9D"/>
<path d="M2.20729 14.2876L11.7673 14.3513C12.8877 14.3588 13.7899 15.2731 13.7824 16.3935L13.6507 36.1224C13.6386 37.9297 11.4474 38.8203 10.1779 37.5337L0.0915807 27.3118L0.165101 16.3027C0.172583 15.1823 1.0869 14.2801 2.20729 14.2876Z" fill="#DC2836"/>
<path d="M37.5853 41.1803L27.2341 41.1112L27.5031 0.838797L40.0792 13.584C40.4335 13.9431 40.6107 14.1227 40.7361 14.3322C40.8426 14.5103 40.9212 14.7037 40.9691 14.9056C41.0254 15.1432 41.0238 15.3954 41.0204 15.8999L40.8732 37.936C40.8655 39.0913 40.8616 39.6689 40.6303 40.1071C40.4354 40.4763 40.1312 40.7764 39.7594 40.9664C39.3182 41.1919 38.7406 41.188 37.5853 41.1803Z" fill="#A8DADC"/>
<path d="M40.865 39.1735L40.9424 27.5848L0.0904474 27.312L13.0266 40.4221C13.4045 40.8051 13.9191 41.0223 14.4571 41.0259L38.8228 41.1886C39.9431 41.1961 40.8575 40.2939 40.865 39.1735Z" fill="#1D3557"/>
<path d="M54.9873 21.6442C54.2137 21.3804 53.5104 21.1167 52.8774 20.853C52.2445 20.5717 51.6994 20.2376 51.2423 19.8508C50.7852 19.464 50.4247 19.0069 50.161 18.4794C49.9148 17.9344 49.7918 17.275 49.7918 16.5014C49.7918 15.0069 50.3632 13.8114 51.506 12.9147C52.6664 12.018 54.284 11.5696 56.3587 11.5696C57.1147 11.5696 57.818 11.6224 58.4685 11.7279C59.1191 11.8334 59.6729 12.0004 60.13 12.229C60.6048 12.44 60.974 12.7213 61.2377 13.0729C61.5014 13.407 61.6333 13.8026 61.6333 14.2597C61.6333 14.7168 61.5278 15.1124 61.3168 15.4465C61.1058 15.763 60.8509 16.0355 60.552 16.2641C60.1652 16.0179 59.6465 15.8069 58.996 15.6311C58.3455 15.4377 57.6334 15.341 56.8598 15.341C56.0686 15.341 55.4884 15.4553 55.1191 15.6838C54.7499 15.8948 54.5653 16.1674 54.5653 16.5014C54.5653 16.7651 54.6796 16.9849 54.9082 17.1607C55.1367 17.319 55.4796 17.4684 55.9367 17.6091L57.3345 18.0574C58.9872 18.5849 60.2531 19.2618 61.1322 20.0882C62.0289 20.8969 62.4772 22.0046 62.4772 23.4112C62.4772 24.9057 61.8882 26.1188 60.7102 27.0507C59.5322 27.9649 57.8004 28.4221 55.5147 28.4221C54.706 28.4221 53.9499 28.3517 53.2467 28.2111C52.561 28.088 51.9544 27.9034 51.4269 27.6572C50.917 27.3935 50.5126 27.077 50.2137 26.7078C49.9324 26.321 49.7918 25.8815 49.7918 25.3892C49.7918 24.8793 49.9412 24.4485 50.2401 24.0969C50.539 23.7277 50.8643 23.4463 51.2159 23.2529C51.7082 23.6397 52.306 23.9738 53.0093 24.2551C53.7302 24.5364 54.5126 24.6771 55.3565 24.6771C56.218 24.6771 56.8246 24.5452 57.1762 24.2815C57.5279 24.0178 57.7037 23.7101 57.7037 23.3584C57.7037 23.0068 57.5631 22.7431 57.2817 22.5672C57.0004 22.3738 56.6048 22.1892 56.095 22.0134L54.9873 21.6442ZM72.6797 19.8772C72.6797 19.3321 72.5215 18.9365 72.205 18.6904C71.9061 18.4267 71.4929 18.2948 70.9655 18.2948C70.6138 18.2948 70.2622 18.3387 69.9106 18.4267C69.5765 18.5146 69.2864 18.6464 69.0402 18.8222V27.9737C68.8644 28.0265 68.5831 28.0792 68.1963 28.132C67.8271 28.1847 67.4403 28.2111 67.0359 28.2111C66.6491 28.2111 66.2974 28.1847 65.981 28.132C65.6821 28.0792 65.4271 27.9737 65.2161 27.8155C65.0052 27.6572 64.8381 27.4463 64.7151 27.1825C64.6096 26.9012 64.5568 26.5408 64.5568 26.1012V18.1893C64.5568 17.7146 64.6535 17.3278 64.8469 17.0289C65.0579 16.73 65.3392 16.4575 65.6909 16.2113C66.2886 15.7893 67.0359 15.4465 67.9326 15.1828C68.8468 14.919 69.8578 14.7872 70.9655 14.7872C72.9523 14.7872 74.4819 15.2267 75.5544 16.1058C76.6269 16.9673 77.1632 18.1717 77.1632 19.7189V27.9737C76.9873 28.0265 76.706 28.0792 76.3192 28.132C75.95 28.1847 75.5632 28.2111 75.1588 28.2111C74.772 28.2111 74.4204 28.1847 74.1039 28.132C73.805 28.0792 73.5501 27.9737 73.3391 27.8155C73.1281 27.6572 72.9611 27.4463 72.838 27.1825C72.7325 26.9012 72.6797 26.5408 72.6797 26.1012V19.8772ZM85.4182 25.1518C85.7171 25.1518 86.0423 25.1254 86.394 25.0727C86.7632 25.0024 87.0357 24.9144 87.2115 24.8089V22.6991L85.3127 22.8573C84.8204 22.8925 84.416 22.998 84.0995 23.1738C83.783 23.3496 83.6248 23.6134 83.6248 23.965C83.6248 24.3167 83.7567 24.6068 84.0204 24.8353C84.3017 25.0463 84.7676 25.1518 85.4182 25.1518ZM85.2072 14.7872C86.1566 14.7872 87.0181 14.8839 87.7917 15.0773C88.5829 15.2707 89.2511 15.5696 89.7961 15.9739C90.3587 16.3608 90.7895 16.8618 91.0884 17.4772C91.3873 18.075 91.5367 18.7871 91.5367 19.6134V25.521C91.5367 25.9782 91.4049 26.3562 91.1411 26.6551C90.895 26.9364 90.5961 27.1825 90.2444 27.3935C89.1016 28.0792 87.4929 28.4221 85.4182 28.4221C84.4863 28.4221 83.6424 28.3342 82.8863 28.1583C82.1479 27.9825 81.5061 27.7188 80.9611 27.3671C80.4336 27.0155 80.0205 26.5672 79.7216 26.0221C79.4403 25.4771 79.2996 24.8441 79.2996 24.1232C79.2996 22.9101 79.66 21.9782 80.3809 21.3277C81.1018 20.6772 82.2182 20.2728 83.7303 20.1145L87.1852 19.7453V19.5607C87.1852 19.0508 86.9566 18.6904 86.4995 18.4794C86.0599 18.2508 85.4182 18.1365 84.5742 18.1365C83.9061 18.1365 83.2556 18.2069 82.6226 18.3475C81.9897 18.4882 81.4182 18.664 80.9084 18.875C80.6798 18.7168 80.4864 18.4794 80.3281 18.1629C80.1699 17.8289 80.0908 17.486 80.0908 17.1344C80.0908 16.6772 80.1963 16.3168 80.4073 16.0531C80.6358 15.7718 80.9787 15.5344 81.4358 15.341C81.9457 15.1476 82.5435 15.0069 83.2292 14.919C83.9325 14.8311 84.5918 14.7872 85.2072 14.7872ZM100.159 14.7872C101.214 14.7872 102.19 14.9278 103.087 15.2091C104.001 15.4729 104.783 15.886 105.434 16.4487C106.084 17.0113 106.594 17.7234 106.964 18.5849C107.333 19.4288 107.517 20.4398 107.517 21.6178C107.517 22.7431 107.359 23.7277 107.043 24.5716C106.726 25.4155 106.278 26.1276 105.698 26.7078C105.117 27.2704 104.414 27.6924 103.588 27.9737C102.779 28.255 101.874 28.3957 100.871 28.3957C100.115 28.3957 99.4121 28.2814 98.7615 28.0528V32.4308C98.5857 32.4835 98.3044 32.5363 97.9176 32.589C97.5308 32.6594 97.1352 32.6945 96.7308 32.6945C96.344 32.6945 95.9923 32.6681 95.6759 32.6154C95.377 32.5627 95.122 32.4572 94.9111 32.2989C94.7001 32.1407 94.5418 31.9209 94.4363 31.6396C94.3308 31.3759 94.2781 31.0242 94.2781 30.5847V17.9256C94.2781 17.4508 94.3748 17.064 94.5682 16.7651C94.7792 16.4662 95.0605 16.1937 95.4121 15.9476C95.9572 15.5959 96.6341 15.3146 97.4429 15.1036C98.2516 14.8927 99.1571 14.7872 100.159 14.7872ZM100.212 24.8617C102.023 24.8617 102.928 23.7804 102.928 21.6178C102.928 20.4925 102.7 19.6574 102.243 19.1124C101.803 18.5673 101.161 18.2948 100.318 18.2948C99.9835 18.2948 99.6846 18.3387 99.4209 18.4267C99.1571 18.497 98.9286 18.5849 98.7352 18.6904V24.4925C98.9461 24.598 99.1747 24.6859 99.4209 24.7562C99.667 24.8265 99.9307 24.8617 100.212 24.8617Z" fill="white"/>
</svg>
