<svg width="73" height="118" viewBox="0 0 73 118" fill="none" xmlns="http://www.w3.org/2000/svg">
<path d="M66.4297 103.317L68.8162 111.071L72.8636 116.759C73.1554 117.168 72.962 117.695 72.4429 117.905C72.1521 118.023 71.8124 118.02 71.5268 117.894C69.7092 117.091 63.0418 114.11 62.9059 113.535C62.7485 112.868 59.7256 105.492 59.7256 105.492L66.4297 103.317Z" fill="#006970"/>
<g opacity="0.6">
<path d="M72.4428 117.905L62.7302 113.014L62.8405 113.341C62.9359 113.623 63.1491 113.869 63.445 114.034C64.2371 114.474 66.456 115.649 71.4985 117.9C71.7915 118.031 72.1473 118.033 72.4428 117.905Z" fill="white"/>
</g>
<g opacity="0.6">
<path d="M63.8225 110.091C64.1035 110.171 64.2792 110.446 64.193 110.679C64.1069 110.912 63.7671 111.061 63.4845 110.985C63.202 110.909 62.9788 110.584 63.0962 110.361C63.2139 110.137 63.6242 109.98 63.8759 110.109" fill="white"/>
</g>
<path d="M69.1542 115.025C69.2147 115.034 69.2904 114.582 69.7772 114.239C70.251 113.883 70.808 113.874 70.8036 113.824C70.8054 113.803 70.6658 113.77 70.4371 113.794C70.2098 113.817 69.9001 113.915 69.6346 114.108C69.3703 114.301 69.2158 114.541 69.1616 114.723C69.1052 114.907 69.1289 115.024 69.1542 115.025Z" fill="#263238"/>
<path d="M70.173 115.905C70.229 115.928 70.4466 115.609 70.8948 115.385C71.3371 115.153 71.7823 115.132 71.7812 115.08C71.7949 115.034 71.2869 114.973 70.7808 115.236C70.2718 115.495 70.1169 115.896 70.173 115.905Z" fill="#263238"/>
<path d="M67.4594 113.985C67.5158 114.011 67.8474 113.519 68.5072 113.12C69.1596 112.713 69.8291 112.589 69.8135 112.538C69.815 112.493 69.0794 112.544 68.3784 112.98C67.6721 113.409 67.4066 113.973 67.4594 113.985Z" fill="#263238"/>
<path d="M66.4933 111.677C66.5342 111.718 66.9942 111.422 67.6641 111.249C68.3313 111.068 68.9154 111.087 68.9195 111.035C68.9329 110.992 68.3157 110.889 67.598 111.082C66.8787 111.269 66.4513 111.648 66.4933 111.677Z" fill="#263238"/>
<path d="M65.7226 109.415C65.7668 109.453 66.2027 109.078 66.9268 108.943C67.6472 108.795 68.2431 108.967 68.2617 108.917C68.2717 108.897 68.1362 108.824 67.8844 108.771C67.6345 108.716 67.2658 108.697 66.8767 108.772C66.4883 108.849 66.1704 109.004 65.9777 109.145C65.7831 109.286 65.7029 109.402 65.7226 109.415Z" fill="#263238"/>
<path d="M66.7645 108.516C66.7764 108.514 66.7626 108.405 66.6787 108.222C66.5948 108.04 66.4359 107.78 66.1381 107.522C65.988 107.402 65.8198 107.242 65.5232 107.2C65.3754 107.178 65.1871 107.242 65.1099 107.369C65.0327 107.494 65.0405 107.628 65.0787 107.751C65.2536 108.238 65.9264 108.595 66.6223 108.513C67.3174 108.421 67.8224 107.967 67.9468 107.485C67.9683 107.362 67.9635 107.219 67.8465 107.105C67.7303 106.99 67.5212 106.981 67.3928 107.03C67.1247 107.127 66.9928 107.299 66.8618 107.434C66.6093 107.721 66.4845 107.991 66.4214 108.179C66.3583 108.367 66.3545 108.476 66.3668 108.478C66.4065 108.491 66.4767 108.046 66.9825 107.51C67.1128 107.383 67.2598 107.227 67.4559 107.166C67.5513 107.136 67.6464 107.149 67.7032 107.206C67.76 107.26 67.773 107.361 67.7515 107.458C67.6423 107.855 67.1796 108.269 66.5903 108.34C66.0048 108.413 65.414 108.099 65.2688 107.708C65.2354 107.613 65.2339 107.511 65.277 107.44C65.3193 107.371 65.4069 107.335 65.5031 107.344C65.7066 107.363 65.8841 107.497 66.03 107.609C66.6182 108.086 66.7255 108.533 66.7645 108.516Z" fill="#263238"/>
<path d="M34.5281 104.541L35.055 111.056C35.055 111.056 27.1362 113.207 27.0906 114.419L42.5627 114.511L42.2504 104.333L34.5281 104.541Z" fill="#006970"/>
<g opacity="0.6">
<path d="M39.8163 110.389C40.1182 110.448 40.3351 110.719 40.2749 110.968C40.2144 111.217 39.8806 111.4 39.5776 111.345C39.2746 111.289 39.002 110.971 39.096 110.729C39.1899 110.487 39.5965 110.29 39.8743 110.403" fill="white"/>
</g>
<g opacity="0.6">
<path d="M42.5627 114.511L42.5311 113.485L27.5874 113.822C27.5874 113.822 27.0902 113.998 27.0115 114.51L42.5627 114.511Z" fill="white"/>
</g>
<path d="M34.8021 110.997C34.8069 111.059 35.1853 111.078 35.5644 111.267C35.9495 111.449 36.1507 111.712 36.2194 111.686C36.2885 111.672 36.1622 111.305 35.6988 111.082C35.2373 110.856 34.7835 110.941 34.8021 110.997Z" fill="#263238"/>
<path d="M33.2005 111.587C33.1852 111.647 33.5161 111.744 33.7823 111.999C34.0578 112.248 34.1328 112.529 34.2078 112.525C34.2791 112.533 34.3181 112.169 33.9799 111.857C33.6449 111.543 33.1997 111.528 33.2005 111.587Z" fill="#263238"/>
<path d="M32.338 113.199C32.4071 113.211 32.5007 112.899 32.2942 112.565C32.0907 112.23 31.7298 112.105 31.6997 112.158C31.6589 112.21 31.8951 112.386 32.0592 112.662C32.2318 112.935 32.263 113.195 32.338 113.199Z" fill="#263238"/>
<path d="M34.8828 109.502C34.9166 109.557 35.2597 109.463 35.6875 109.476C36.1152 109.483 36.452 109.592 36.4891 109.538C36.5311 109.492 36.1984 109.271 35.6945 109.261C35.1914 109.249 34.8442 109.454 34.8828 109.502Z" fill="#263238"/>
<g opacity="0.3">
<path d="M34.6348 105.831L34.7265 106.992L42.3244 106.748L42.2954 105.7L34.6348 105.831Z" fill="black"/>
</g>
<path d="M34.8064 108.186C34.8064 108.211 35.1064 108.242 35.5806 108.163C35.8168 108.124 36.0938 108.053 36.3834 107.94C36.5278 107.883 36.6753 107.815 36.8208 107.735C36.8906 107.696 36.9738 107.656 37.0492 107.58C37.1305 107.514 37.1721 107.349 37.0714 107.25C36.9886 107.155 36.8472 107.117 36.7354 107.117C36.6214 107.117 36.5297 107.138 36.4462 107.157C36.2754 107.196 36.1157 107.247 35.9698 107.305C35.6783 107.422 35.4436 107.567 35.2698 107.706C34.9211 107.987 34.8072 108.221 34.8335 108.232C34.8684 108.252 35.0359 108.054 35.3927 107.82C35.5706 107.704 35.7989 107.583 36.0715 107.485C36.2081 107.436 36.3556 107.394 36.5119 107.361C36.6745 107.322 36.8137 107.317 36.8579 107.376C36.8739 107.399 36.8765 107.407 36.8435 107.447C36.8093 107.485 36.7443 107.522 36.6756 107.561C36.5416 107.637 36.406 107.704 36.2735 107.762C36.008 107.878 35.7525 107.96 35.5335 108.016C35.0949 108.128 34.8038 108.153 34.8064 108.186Z" fill="#263238"/>
<path d="M34.9083 108.272C34.9354 108.281 35.0769 108.056 35.0899 107.655C35.0954 107.456 35.0613 107.216 34.9584 106.963C34.9061 106.837 34.8366 106.709 34.7468 106.583C34.6517 106.46 34.5347 106.295 34.241 106.275C34.0881 106.274 33.9644 106.375 33.9243 106.46C33.8764 106.547 33.869 106.62 33.8534 106.694C33.8304 106.843 33.8393 106.988 33.8686 107.121C33.9273 107.39 34.0702 107.611 34.2236 107.768C34.5381 108.089 34.8559 108.155 34.8615 108.134C34.8857 108.102 34.6179 107.989 34.3751 107.68C34.2552 107.527 34.1463 107.325 34.1081 107.09C34.0884 106.973 34.0862 106.849 34.1088 106.723C34.1281 106.588 34.1857 106.478 34.2477 106.491C34.3246 106.488 34.459 106.586 34.5262 106.692C34.6098 106.803 34.6773 106.918 34.7308 107.031C34.8362 107.257 34.8864 107.475 34.9042 107.66C34.9387 108.03 34.8667 108.264 34.9083 108.272Z" fill="#263238"/>
<path d="M34.4881 47.742L58.0624 47.5967L69.4541 108.858L59.6706 109.875L47.1315 59.5034L43.3786 110.054L43.3689 110.205L32.7878 110.054L34.4881 47.742Z" fill="#263238"/>
<path d="M46.3426 58.1848C46.3709 58.1809 46.3341 57.8963 46.2817 57.4369C46.229 56.9778 46.167 56.343 46.1406 55.6407C46.115 54.9381 46.1299 54.3015 46.1488 53.8406C46.1674 53.3796 46.183 53.0936 46.1548 53.0911C46.1295 53.089 46.0656 53.3714 46.0114 53.8336C45.9572 54.2954 45.9205 54.9372 45.9461 55.6459C45.9728 56.3543 46.0567 56.993 46.1451 57.4512C46.2327 57.9094 46.3178 58.1882 46.3426 58.1848Z" fill="#455A64"/>
<path d="M44.4006 53.2668C44.4039 53.2589 44.359 53.2315 44.2613 53.2236C44.1651 53.2148 44.017 53.2361 43.8711 53.3191C43.7311 53.4015 43.5807 53.5517 43.5762 53.7609C43.5669 53.9734 43.7764 54.1786 44.0393 54.2476C44.2996 54.3236 44.6181 54.2652 44.7685 54.0916C44.9204 53.9232 44.9122 53.7289 44.8625 53.5939C44.8079 53.4553 44.7061 53.3647 44.6233 53.324C44.5402 53.282 44.4841 53.2814 44.4808 53.289C44.4622 53.3109 44.6701 53.3799 44.7292 53.6219C44.7559 53.7362 44.7411 53.8892 44.6282 53.9998C44.5209 54.1129 44.3033 54.1518 44.102 54.0962C43.9008 54.0406 43.7571 53.9013 43.7559 53.7581C43.7485 53.614 43.8503 53.4851 43.9561 53.4076C44.1826 53.2446 44.3991 53.2933 44.4006 53.2668Z" fill="#455A64"/>
<path d="M50.4376 52.0343C50.4294 52.0431 50.5059 52.0993 50.6533 52.1948C50.7974 52.293 51.0276 52.4134 51.3258 52.5402C51.6228 52.6697 51.9997 52.7874 52.4301 52.8822C52.8627 52.9689 53.3506 53.0275 53.866 53.0306C54.3814 53.0278 54.8697 52.9695 55.3026 52.8828C55.7333 52.7883 56.1102 52.6709 56.4073 52.5414C56.7054 52.4149 56.9357 52.2945 57.0801 52.1966C57.2272 52.1015 57.304 52.0449 57.2958 52.0364C57.2743 52.0118 56.9461 52.2182 56.3479 52.4399C56.0505 52.553 55.6799 52.656 55.2599 52.7402C54.8377 52.8162 54.365 52.8682 53.866 52.871C53.3669 52.8679 52.8946 52.8153 52.4724 52.7393C52.0528 52.6551 51.6823 52.552 51.3848 52.4383C50.7874 52.2161 50.4595 52.0096 50.4376 52.0343Z" fill="#455A64"/>
<path d="M35.845 53.3304C35.8402 53.3483 36.0827 53.4134 36.4911 53.442C36.8985 53.4715 37.4737 53.4487 38.0785 53.3082C38.683 53.1659 39.1865 52.9367 39.5133 52.7357C39.8419 52.5348 40.0057 52.3748 39.9901 52.3615C39.9533 52.3198 39.2021 52.8874 38.025 53.155C36.8539 53.4365 35.8495 53.279 35.845 53.3304Z" fill="#455A64"/>
<path d="M65.7224 109.415C65.7243 109.412 65.6883 109.376 65.6541 109.285C65.6192 109.195 65.5736 109.06 65.5212 108.88C65.4154 108.521 65.2761 107.988 65.1068 107.3C64.7693 105.924 64.311 103.927 63.7622 101.456C62.6639 96.516 61.1987 89.6829 59.5849 82.1354C57.963 74.5894 56.4952 67.759 55.4306 62.807C54.8862 60.3413 54.4451 58.3435 54.1384 56.9544C53.9817 56.27 53.8592 55.7359 53.7741 55.3652C53.7314 55.1892 53.6984 55.0524 53.6743 54.9527C53.6505 54.8599 53.6338 54.8131 53.6338 54.8131C53.6338 54.8131 53.6375 54.8618 53.655 54.9557C53.6746 55.056 53.7014 55.1941 53.7355 55.371C53.812 55.7432 53.9223 56.2788 54.0638 56.9657C54.356 58.3569 54.7763 60.3574 55.2951 62.8267C56.3452 67.7809 57.7933 74.6143 59.3929 82.163C61.0067 89.7106 62.4931 96.5412 63.6267 101.477C64.193 103.945 64.6716 105.94 65.0325 107.313C65.3882 108.685 65.6508 109.441 65.7224 109.415Z" fill="#455A64"/>
<path d="M35.6772 108.725C35.6772 108.725 35.6839 108.677 35.6872 108.584C35.6895 108.483 35.6928 108.346 35.6969 108.169C35.701 107.797 35.7073 107.261 35.7151 106.575C35.7188 105.882 35.7258 105.035 35.747 104.052C35.7663 103.069 35.7756 101.949 35.8164 100.712C35.8755 98.2371 35.991 95.2911 36.1651 92.0216C36.3508 88.7526 36.601 85.1602 36.9419 81.3942C37.2913 77.6273 37.6983 74.0437 38.1108 70.7881C38.5349 67.5335 38.9571 64.6063 39.3499 62.1518C39.5348 60.9236 39.7298 59.8151 39.8898 58.8407C40.048 57.8659 40.1958 57.0277 40.318 56.3428C40.4353 55.6632 40.527 55.1327 40.5905 54.7642C40.6187 54.5891 40.6406 54.4526 40.6566 54.3532C40.6703 54.2604 40.6726 54.2121 40.6726 54.2121C40.6726 54.2121 40.6573 54.2586 40.6369 54.3504C40.6161 54.4496 40.5879 54.5852 40.5519 54.7594C40.4798 55.1269 40.3762 55.6559 40.2433 56.3336C40.1093 57.0174 39.9507 57.8544 39.7821 58.8282C39.6117 59.8017 39.4071 60.9093 39.2133 62.1369C38.803 64.5902 38.3659 67.5174 37.9322 70.7726C37.5097 74.0288 37.0971 77.6136 36.7474 81.3823C36.4065 85.1502 36.1614 88.7444 35.9854 92.0152C35.8213 95.2862 35.7195 98.2338 35.6783 100.71C35.6464 101.948 35.6464 103.068 35.6379 104.051C35.6271 105.035 35.6312 105.882 35.6393 106.574C35.6471 107.261 35.6534 107.796 35.6575 108.169C35.6616 108.346 35.665 108.483 35.6672 108.584C35.6705 108.677 35.6772 108.725 35.6772 108.725Z" fill="#455A64"/>
<path d="M11.3045 24.128L26.0354 27.6487L34.2865 23.6595L40.5476 29.7407L28.8686 33.8813C27.2006 34.4726 25.2968 34.4209 23.6801 33.7405L9.20947 27.6484L11.3045 24.128Z" fill="#FFBE9D"/>
<path d="M7.94434 22.9663L6.12005 22.1911L1.04673 20.0297C0.63345 19.8953 0.248385 20.259 0.461522 20.5788L3.69645 22.756L2.343 23.1786C2.07454 23.2625 1.85434 23.4254 1.72512 23.6355L1.00625 24.8066C1.00625 24.8066 0.185268 24.8787 0.102464 25.3156C0.0148332 25.7789 0.636042 25.9033 0.636042 25.9033L0.481205 26.4137C0.408798 26.6527 0.463388 26.9054 0.630852 27.1097C1.41656 27.3742 2.04075 26.0267 2.04075 26.0267L2.87732 26.0985L3.79262 27.6092C4.95411 27.8396 4.40381 26.3402 4.40381 26.3402C4.40381 26.3402 4.40381 26.3402 4.91623 26.4444C5.42865 26.5487 5.69786 26.8461 6.49509 27.1808C7.29231 27.5155 8.8589 27.6332 8.8589 27.6332L10.0167 28.3331L13.5301 24.3968L7.94434 22.9663Z" fill="#FAFAFA"/>
<path d="M7.94417 22.9663C7.94528 22.9639 7.97908 22.97 8.04406 22.9843C8.11832 23.0013 8.21301 23.0232 8.33146 23.0502C8.59546 23.1144 8.96492 23.2041 9.43724 23.319C10.4105 23.5625 11.8059 23.9113 13.5489 24.3472L13.6346 24.3685L13.5815 24.4284C12.5994 25.5366 11.4123 26.8762 10.0844 28.3744L10.0347 28.4304L9.966 28.389C9.60471 28.1716 9.20962 27.9339 8.80674 27.6913L8.85056 27.7049C8.1057 27.6341 7.32779 27.5496 6.56361 27.2902C6.18932 27.1504 5.84511 26.9592 5.50832 26.7688C5.33974 26.6746 5.16931 26.5904 4.98402 26.5408C4.79614 26.497 4.58226 26.4578 4.38063 26.4156L4.49388 26.3183C4.583 26.5904 4.6502 26.8737 4.61938 27.1808C4.59784 27.3295 4.54624 27.5049 4.36726 27.6195C4.18309 27.7332 3.95658 27.715 3.76981 27.6861L3.72748 27.6794L3.70631 27.6444C3.4152 27.1641 3.10478 26.6521 2.79064 26.134L2.86713 26.1775C2.6358 26.1577 2.38627 26.1362 2.13563 26.1146L2.03093 26.1054L2.13155 26.0547C2.0105 26.2982 1.86828 26.5271 1.68448 26.7409C1.50142 26.9455 1.27306 27.1695 0.908801 27.2173L0.773636 27.2191C0.72982 27.2139 0.687119 27.2024 0.644046 27.1936L0.611739 27.1863L0.595773 27.1826L0.594662 27.1823C0.603574 27.1887 0.512237 27.1273 0.550854 27.1531L0.549732 27.1519L0.547511 27.1492L0.54342 27.1437L0.510751 27.1005C0.489957 27.0713 0.471017 27.0412 0.454307 27.0102C0.387099 26.8871 0.352939 26.7524 0.353681 26.6183C0.351825 26.4812 0.401579 26.3532 0.434998 26.2389L0.542683 25.8844L0.612487 25.979C0.413832 25.9309 0.235602 25.8473 0.110468 25.7032C-0.0124383 25.5551 -0.0272999 25.3703 0.0387949 25.2076C0.115286 25.0407 0.285725 24.9298 0.455418 24.8611C0.629566 24.7923 0.805946 24.7513 0.995319 24.7306L0.921798 24.7723C1.07478 24.5239 1.22628 24.2779 1.37629 24.0347C1.4513 23.9131 1.52556 23.7921 1.59982 23.6717C1.66777 23.5513 1.7684 23.4184 1.89614 23.323C2.02201 23.2238 2.17797 23.1478 2.3369 23.1013C2.48728 23.0545 2.63655 23.0083 2.78508 22.9621C3.08213 22.87 3.3751 22.7788 3.66435 22.6891L3.64022 22.8113C2.4817 22.0275 1.40191 21.2969 0.412346 20.6271L0.401581 20.6198L0.393784 20.6089C0.276448 20.4408 0.316176 20.2173 0.471758 20.0866C0.619914 19.9482 0.876491 19.9063 1.07292 19.975L1.07775 19.9768L1.0796 19.9777C3.19055 20.8895 4.90642 21.6304 6.10726 22.1491C6.6906 22.4048 7.14844 22.6051 7.47223 22.7471C7.61964 22.8137 7.7366 22.8666 7.82572 22.9071C7.90555 22.9432 7.94566 22.9636 7.94417 22.9663C7.94269 22.9691 7.89999 22.9542 7.81792 22.9226C7.72658 22.8861 7.60664 22.8383 7.45551 22.7781C7.12689 22.6429 6.66238 22.4513 6.0705 22.2075C4.8626 21.7001 3.13671 20.9746 1.01351 20.0826L1.02019 20.085C0.870922 20.0355 0.692694 20.0665 0.582413 20.1687C0.468789 20.2675 0.441676 20.4246 0.528564 20.549L0.510003 20.5308C1.50402 21.196 2.58828 21.922 3.75162 22.7009L3.86821 22.7788L3.72748 22.8228C3.4386 22.9134 3.14562 23.0056 2.84931 23.0986C2.70115 23.1451 2.55188 23.1919 2.40187 23.239C2.25817 23.2816 2.13118 23.3452 2.02238 23.4306C1.91062 23.5169 1.83449 23.6154 1.76431 23.7389C1.69079 23.8593 1.61653 23.9806 1.54189 24.1022C1.39262 24.3457 1.24225 24.592 1.09001 24.8407L1.06809 24.8763L1.01611 24.8826C0.702348 24.9206 0.324717 25.028 0.217406 25.2602C0.171734 25.3755 0.181757 25.5156 0.268274 25.615C0.352563 25.7166 0.508892 25.7914 0.659276 25.827L0.751358 25.8488L0.729453 25.9218L0.622142 26.2766C0.586124 26.3991 0.544166 26.5083 0.547137 26.6193C0.546394 26.7311 0.575353 26.8436 0.631422 26.9464C0.645532 26.9722 0.661133 26.9972 0.678585 27.0215L0.705691 27.0574L0.709033 27.0619L0.710892 27.0641L0.711628 27.0653C0.750246 27.0914 0.659276 27.0303 0.66893 27.0367L0.669667 27.037L0.68118 27.0391L0.703832 27.0437C0.73428 27.0492 0.763984 27.0583 0.794803 27.0625L0.887633 27.061C1.14124 27.0324 1.35958 26.8445 1.52779 26.6497C1.69859 26.4517 1.83858 26.2261 1.95146 25.9987L1.97968 25.9419L2.05209 25.948L2.1568 25.9571C2.40744 25.9787 2.65697 26.0002 2.8883 26.02L2.9414 26.0246L2.96516 26.0635C3.27893 26.5819 3.58898 27.0942 3.87972 27.5745L3.81622 27.5332C3.97737 27.5581 4.14409 27.5651 4.25289 27.4949C4.3628 27.4274 4.4133 27.296 4.43113 27.1644C4.46009 26.8959 4.39697 26.6147 4.31453 26.363L4.27184 26.2325L4.42778 26.2657C4.63461 26.3094 4.8303 26.3447 5.04344 26.3949C5.25546 26.452 5.44334 26.5469 5.61377 26.6424C5.95316 26.8354 6.2855 27.02 6.64048 27.1537C7.35823 27.4009 8.14097 27.4918 8.86801 27.5624L8.89363 27.5648L8.9122 27.576C9.31396 27.8202 9.70757 28.0591 10.0681 28.278L9.95003 28.2929C11.2901 26.802 12.4884 25.4691 13.4798 24.3664L13.5125 24.4476C11.7751 23.9918 10.3841 23.627 9.41385 23.3725C8.94636 23.2466 8.58062 23.1481 8.31958 23.0776C8.20373 23.0448 8.11126 23.0186 8.03848 22.998C7.97462 22.9794 7.94306 22.9688 7.94417 22.9663Z" fill="#263238"/>
<path d="M4.52594 26.3654C4.52111 26.3831 4.12046 26.3238 3.43426 26.2405C2.74806 26.1569 1.77447 26.0553 0.628577 25.9769L0.646776 25.9766C0.198223 26.0088 -0.116283 25.5819 0.0563806 25.2502C0.213077 24.9182 0.638972 24.7416 1.0348 24.6878C1.47035 24.6303 1.87324 24.613 2.26833 24.5546C2.66155 24.5023 3.03769 24.4376 3.3923 24.3643C3.74728 24.2907 4.08072 24.2093 4.38929 24.1238C4.54079 24.0834 4.68078 24.0335 4.7788 23.9599C4.87832 23.8882 4.90505 23.7888 4.85826 23.7006C4.81111 23.6106 4.71642 23.538 4.62619 23.4665C4.53856 23.3945 4.45501 23.3254 4.37518 23.2598C4.22108 23.1296 4.08704 23.0208 3.97082 22.9375C3.73874 22.7709 3.58835 22.7004 3.59689 22.6888C3.60135 22.6815 3.76622 22.7341 4.01872 22.8898C4.14459 22.9673 4.28941 23.0722 4.45093 23.1965C4.53336 23.2589 4.61988 23.3245 4.71049 23.3929C4.80146 23.461 4.91397 23.5355 4.98377 23.6556C5.06175 23.7757 5.0157 23.9545 4.8824 24.0478C4.75764 24.1463 4.59908 24.202 4.44239 24.2476C4.13234 24.3394 3.79592 24.4269 3.43723 24.5054C3.07853 24.5835 2.69756 24.6525 2.29914 24.7076C1.90405 24.7681 1.47518 24.7896 1.07118 24.8432C0.702464 24.8921 0.355653 25.0505 0.234232 25.305C0.0964731 25.5436 0.354539 25.8571 0.626345 25.8294L0.635637 25.8285L0.644917 25.8294C1.79415 25.9197 2.76922 26.0416 3.45282 26.1511C3.79481 26.2055 4.06439 26.2551 4.24745 26.2934C4.43051 26.3317 4.52779 26.3575 4.52594 26.3654Z" fill="#263238"/>
<path d="M4.38894 24.2359C4.39785 24.2779 3.96451 24.3673 3.41941 24.3426C3.22781 24.3347 3.05069 24.3135 2.90402 24.2885L2.99315 24.2451C2.88435 24.4512 2.79412 24.5822 2.76181 24.5728C2.72913 24.5631 2.76218 24.4153 2.83905 24.1998L2.85612 24.152L2.92816 24.1563C3.12347 24.1675 3.27498 24.1763 3.42982 24.1852C3.95263 24.2086 4.38114 24.1912 4.38894 24.2359Z" fill="#263238"/>
<path d="M37.6453 19.2438L28.1541 25.2052L34.8088 32.3806L42.9244 28.6085L37.6453 19.2438Z" fill="#006970"/>
<path d="M37.6452 19.2439C39.0187 18.5516 43.7705 17.6985 43.7705 17.6985L52.9558 16.8809L60.9224 19.8762L57.6482 31.105L60.5151 52.2736L33.1667 53.4934L37.6452 19.2439Z" fill="#006970"/>
<path d="M53.2579 28.6359H48.5474V29.6763H53.2579V28.6359Z" fill="#FAFAFA"/>
<path d="M53.267 29.6839H48.5378V28.6283H53.267V29.6839ZM48.5568 29.669H53.2484V28.6439H48.5568V29.669Z" fill="#263238"/>
<path d="M36.5015 25.7415C36.4481 25.7424 36.3875 24.9705 36.3667 24.0176C36.3456 23.0645 36.3716 22.2917 36.4251 22.2907C36.4785 22.2898 36.5387 23.0618 36.5598 24.0146C36.581 24.9674 36.555 25.7406 36.5015 25.7415Z" fill="#263238"/>
<path d="M53.7316 6.57785L52.7265 18.2362C52.5624 20.1397 50.6285 21.6152 48.2981 21.6152C45.7323 21.6152 43.6997 19.8387 43.8683 17.7424C43.9574 16.6327 44.038 15.724 44.038 15.724C44.038 15.724 40.5911 15.2853 40.5484 12.4633C40.5239 10.8334 40.8673 7.13484 41.1614 4.30158C41.3604 2.3862 43.3188 0.915604 45.6666 0.915604H47.7486C51.3344 1.08738 54.0402 3.64792 53.7316 6.57785Z" fill="#FFBE9D"/>
<path d="M44.0324 15.6835C44.0324 15.6835 46.2105 15.8286 48.5253 14.638C48.5253 14.638 47.4633 16.6689 44.0242 16.4147L44.0324 15.6835Z" fill="#EB996E"/>
<path d="M41.8631 7.86775C41.8538 8.08057 42.0666 8.26238 42.3376 8.27424C42.6083 8.2861 42.8356 8.12375 42.8449 7.91093C42.8542 7.6981 42.6417 7.51599 42.3707 7.50413C42.0996 7.49228 41.8724 7.65493 41.8631 7.86775Z" fill="#263238"/>
<path d="M41.7557 7.13167C41.8166 7.18427 42.1894 6.95837 42.7192 6.95959C43.2484 6.95442 43.6368 7.17758 43.6943 7.12437C43.7225 7.10096 43.6605 7.00611 43.4912 6.90517C43.3245 6.80484 43.0404 6.70694 42.7107 6.70816C42.381 6.70968 42.1032 6.8091 41.9439 6.91095C41.7805 7.0131 41.7256 7.10826 41.7557 7.13167Z" fill="#263238"/>
<path d="M46.9541 7.86795C46.9449 8.08077 47.1576 8.26258 47.4287 8.27444C47.6994 8.2863 47.9266 8.12394 47.9359 7.91112C47.9452 7.6983 47.7324 7.51619 47.4617 7.50433C47.1907 7.49248 46.9631 7.65513 46.9541 7.86795Z" fill="#263238"/>
<path d="M46.9617 7.21234C47.0229 7.26494 47.3961 7.03904 47.9252 7.04026C48.454 7.03509 48.8428 7.25825 48.9003 7.20505C48.9285 7.18163 48.8669 7.08678 48.6968 6.98584C48.5301 6.88521 48.246 6.78761 47.9163 6.78883C47.5862 6.79035 47.3088 6.88977 47.1492 6.99162C46.9873 7.09377 46.9316 7.18893 46.9617 7.21234Z" fill="#263238"/>
<path d="M45.0886 10.321C45.0912 10.2964 44.7618 10.2499 44.2282 10.1939C44.093 10.1824 43.965 10.1605 43.9423 10.0848C43.9104 10.0048 43.9672 9.88533 44.0325 9.75673C44.1599 9.48888 44.2928 9.20796 44.4324 8.91366C44.9879 7.71304 45.3897 6.72586 45.3307 6.70792C45.2713 6.68998 44.7729 7.64859 44.2178 8.8492C44.0842 9.14533 43.9564 9.42747 43.8346 9.69744C43.7834 9.82331 43.6954 9.9659 43.7644 10.1319C43.8008 10.2146 43.9 10.2748 43.9869 10.294C44.0734 10.3155 44.1495 10.3168 44.2163 10.3201C44.7536 10.3438 45.0867 10.3459 45.0886 10.321Z" fill="#263238"/>
<path d="M46.8248 5.7083C46.8771 5.82627 47.4059 5.77033 48.0271 5.83174C48.6502 5.88282 49.1511 6.03179 49.2335 5.92599C49.2703 5.87552 49.183 5.76455 48.9803 5.65023C48.7794 5.53622 48.4589 5.42799 48.0861 5.39394C47.713 5.36049 47.3717 5.40914 47.1452 5.48454C46.9172 5.55963 46.8025 5.65236 46.8248 5.7083Z" fill="#263238"/>
<path d="M41.7612 6.28041C41.8544 6.37892 42.219 6.27676 42.6579 6.2719C43.0965 6.25457 43.4682 6.33818 43.5536 6.23511C43.5911 6.18525 43.5328 6.08644 43.3701 5.9931C43.2101 5.90007 42.9428 5.82437 42.6412 5.83166C42.3397 5.83957 42.0783 5.92865 41.9261 6.02959C41.7713 6.13083 41.72 6.23237 41.7612 6.28041Z" fill="#263238"/>
<path d="M52.5697 8.696C52.6284 8.67502 54.9376 8.1226 54.8626 10.0517C54.7872 11.9807 52.4375 11.521 52.4353 11.4657C52.4335 11.4104 52.5697 8.696 52.5697 8.696Z" fill="#FFBE9D"/>
<path d="M53.1835 10.7537C53.1942 10.7479 53.2236 10.7783 53.2919 10.8063C53.3584 10.8333 53.4742 10.854 53.5986 10.8194C53.8504 10.751 54.0728 10.4329 54.0977 10.0857C54.1107 9.91031 54.072 9.74188 54.0015 9.60142C53.935 9.45822 53.8274 9.35698 53.703 9.33539C53.5793 9.30833 53.488 9.36762 53.4571 9.42113C53.4234 9.47433 53.4371 9.51325 53.4245 9.51629C53.4178 9.52085 53.3751 9.48254 53.3974 9.40349C53.4085 9.36549 53.4378 9.3208 53.4946 9.28492C53.5526 9.24874 53.6365 9.23172 53.7238 9.24175C53.905 9.25665 54.0631 9.39802 54.1407 9.55216C54.2284 9.70722 54.2763 9.89663 54.2622 10.0936C54.2317 10.4819 53.9748 10.8394 53.6309 10.9112C53.4638 10.9422 53.3272 10.8978 53.2574 10.8504C53.1861 10.8005 53.1753 10.757 53.1835 10.7537Z" fill="#EB996E"/>
<path d="M53.8805 8.63071C53.5211 8.55957 52.8995 8.83107 52.7461 9.10652C52.5928 9.38197 52.559 9.69421 52.4064 9.96996C52.2538 10.2457 51.9084 10.495 51.5486 10.4251C51.3006 10.3771 51.1231 10.1867 51.0577 9.98486C50.9924 9.78298 51.0188 9.56986 51.0507 9.36251C51.1896 8.46137 51.4209 7.56813 51.4651 6.6606C51.5093 5.75338 51.3515 4.81058 50.7696 4.03743C50.1877 3.26428 49.1187 2.69605 48.0133 2.76872C47.2811 2.81706 46.6093 3.1296 45.8819 3.21321C45.0194 3.31202 44.1074 3.06302 43.4903 2.55954C43.4112 2.49509 43.0432 2.29656 43.0432 2.29656C43.0432 2.24974 43.097 1.8469 43.2912 1.70005C44.7346 0.607063 47.3353 0.302121 49.2416 0.694927C51.148 1.08773 52.9351 2.18984 53.7554 3.65253C54.576 5.11583 54.3324 7.15039 53.8805 8.63071Z" fill="#263238"/>
<path d="M41.1235 3.86629C41.1235 3.86629 50.1651 1.48452 54.0762 7.88952C54.0762 7.88952 54.6607 6.28667 54.6607 5.42748C54.6607 4.85378 54.2415 1.43618 49.9468 0.361133C49.9468 0.361133 43.4766 -1.66097 41.1235 3.86629Z" fill="#006970"/>
<path d="M48.8922 4.02616C48.5728 4.44876 48.0025 4.7376 47.398 4.78259C46.7935 4.82759 46.1689 4.62784 45.7616 4.25936C45.583 4.62419 45.104 4.87471 44.6246 4.85434C44.1452 4.83367 43.7008 4.54362 43.5697 4.16541C43.3072 4.37397 43.0339 4.58832 42.69 4.69138C42.3466 4.79445 41.911 4.75553 41.6856 4.5196C41.4558 4.27942 41.5226 3.91337 41.748 3.67045C41.9734 3.42753 42.3206 3.28281 42.6644 3.16515C43.7383 2.79788 44.9228 2.61364 46.0761 2.74164C47.2294 2.86963 48.3467 3.3275 49.0675 4.07542" fill="#263238"/>
<g opacity="0.4">
<path d="M41.1235 3.86629C41.1235 3.86629 42.1525 2.86421 43.9987 2.79732C46.6655 2.70095 51.6578 3.92862 54.0762 7.88952C54.0762 7.88952 54.6607 6.28667 54.6607 5.42748C54.6607 4.85378 54.2415 1.43618 49.9468 0.361133C49.9468 0.361133 43.4766 -1.66097 41.1235 3.86629Z" fill="black"/>
</g>
<path d="M53.6983 7.13953C52.3575 5.46007 50.509 4.07157 48.4308 3.00838C46.3525 1.94518 42.9156 0.893851 40.5473 0.379129C39.8362 0.224682 39.0951 0.0893867 38.3699 0.192149C37.6451 0.294607 36.9355 0.689847 36.7554 1.27389C36.53 2.00508 38.1148 3.13333 38.8597 3.57691C39.6045 4.02049 41.1236 4.67142 41.1236 4.67142C41.1236 4.67142 41.1032 3.31545 43.754 3.03574C47.3591 2.6554 53.6983 7.13953 53.6983 7.13953Z" fill="#006970"/>
<path d="M46.2832 1.60762C46.2832 1.60762 44.9803 1.0175 43.6721 0.880078C43.941 0.718942 44.0843 0.641416 44.3817 0.531357C45.0512 0.640199 45.7296 0.779444 46.4165 1.09168L46.2832 1.60762Z" fill="#E0E0E0"/>
<path d="M53.181 8.76364C53.1877 8.7834 52.9954 8.87735 52.6931 9.06372C52.3151 9.29022 51.929 9.52159 51.506 9.77484C50.5755 10.3288 49.8076 10.7635 49.775 10.7286C49.743 10.6939 50.4596 10.2023 51.3924 9.64684C52.3174 9.08682 53.1417 8.69949 53.181 8.76364Z" fill="#EBEBEB"/>
<path d="M53.423 11.5775C53.4635 11.599 52.9329 12.2494 52.0395 12.8662C51.1505 13.4874 50.2809 13.8103 50.2612 13.7741C50.233 13.7321 51.0447 13.3536 51.9143 12.7455C52.7888 12.142 53.3773 11.5477 53.423 11.5775Z" fill="#EBEBEB"/>
<path d="M40.4645 10.6439C40.4645 10.6439 41.3973 10.8619 41.6423 10.851C43.3486 10.7756 43.9486 10.3037 46.7357 10.7908C47.1854 10.8692 47.6495 10.8796 48.1044 10.8254C48.5121 10.7768 49.091 10.7285 49.7746 10.7285L50.3112 13.7776C50.3112 13.7776 47.0038 16.1463 44.024 15.8809C40.1727 15.5373 39.7167 11.8576 40.4645 10.6439Z" fill="#FAFAFA"/>
<path d="M40.4647 10.6439C40.4647 10.6439 40.4301 10.7242 40.3633 10.8668C40.3061 11.0133 40.2419 11.2374 40.2036 11.5305C40.1487 12.1109 40.1917 12.998 40.7417 13.9554C41.0242 14.4252 41.452 14.9034 42.0688 15.2591C42.6807 15.6191 43.4753 15.8258 44.3189 15.8617C45.1656 15.8885 46.0552 15.7279 46.9093 15.44C47.767 15.1557 48.6062 14.7666 49.4097 14.3045C49.7127 14.1275 50.009 13.9457 50.2857 13.7536L50.2731 13.7818C50.0855 12.7129 49.9058 11.6877 49.7384 10.7327L49.7744 10.7583C49.0874 10.7525 48.4358 10.8172 47.8038 10.8796C47.4856 10.8972 47.1725 10.8823 46.8736 10.8394C46.5751 10.7947 46.2925 10.7394 46.0107 10.7057C45.4507 10.6297 44.9175 10.5907 44.4225 10.5974C43.9272 10.6011 43.4742 10.6619 43.0646 10.7178C42.6554 10.7762 42.286 10.8233 41.9611 10.8461C41.7988 10.8516 41.6481 10.8747 41.5069 10.8559C41.3688 10.8394 41.2459 10.8163 41.1356 10.7954C40.696 10.7081 40.4647 10.6439 40.4647 10.6439C40.4628 10.5929 41.4097 11.0349 43.0572 10.6813C43.4664 10.623 43.922 10.5594 44.4214 10.5533C44.9205 10.5442 45.4578 10.5813 46.0207 10.6558C46.3025 10.6883 46.5911 10.7437 46.8848 10.7868C47.1789 10.8282 47.4867 10.8419 47.7993 10.8239C48.4213 10.761 49.0867 10.6938 49.7747 10.6987L49.8063 10.699L49.8107 10.7242C49.9793 11.6792 50.1609 12.704 50.3495 13.7727L50.3525 13.79L50.3365 13.801C50.0562 13.9962 49.7595 14.178 49.4543 14.3561C48.6467 14.8204 47.8023 15.2117 46.9371 15.4975C46.0764 15.7866 45.176 15.9487 44.3156 15.9198C43.459 15.8818 42.6525 15.6699 42.0312 15.3017C41.4056 14.9378 40.9745 14.4507 40.6919 13.9746C40.1424 13.0041 40.1089 12.1112 40.1732 11.5278C40.2163 11.2328 40.2853 11.0094 40.3484 10.8613C40.4246 10.7154 40.4647 10.6439 40.4647 10.6439Z" fill="#263238"/>
<path d="M40.7747 12.4225C43.3401 13.469 46.5282 13.421 49.045 12.2976C48.5304 12.795 47.9964 13.3054 47.2868 13.601C46.4722 13.9403 45.5205 13.9579 44.6063 13.9567C43.8781 13.9558 43.1214 13.9421 42.469 13.677C41.7995 13.4049 41.3223 12.9017 40.869 12.4152" fill="#E0E0E0"/>
<path d="M48.6516 11.6537C48.6572 11.6725 48.2536 11.775 47.5841 11.8841C46.9153 11.9936 45.9781 12.0997 44.9362 12.1307C43.8939 12.1602 42.9497 12.1085 42.2731 12.038C41.5958 11.9677 41.1848 11.889 41.1885 11.8698C41.193 11.8458 41.6111 11.8854 42.2865 11.9267C42.9619 11.9684 43.8973 12.0018 44.9292 11.9726C45.961 11.9422 46.8908 11.8546 47.5611 11.7741C48.2317 11.6935 48.6449 11.63 48.6516 11.6537Z" fill="#E0E0E0"/>
<path d="M49.2912 12.9221C49.3072 12.9333 49.0644 13.196 48.5612 13.5286C48.0625 13.8609 47.2809 14.2471 46.3244 14.4635C45.3679 14.6806 44.4552 14.6788 43.8187 14.6037C43.1782 14.5301 42.8054 14.407 42.8121 14.3906C42.8203 14.365 43.2035 14.4486 43.834 14.4921C44.4619 14.5374 45.346 14.5213 46.2732 14.3106C47.2003 14.1008 47.9686 13.7424 48.4788 13.4393C48.9923 13.1367 49.2682 12.9036 49.2912 12.9221Z" fill="#E0E0E0"/>
<path d="M49.3488 12.2213C49.3551 12.231 49.2492 12.2857 49.0513 12.3772C48.8553 12.4715 48.5571 12.5867 48.1784 12.7083C47.8003 12.8324 47.3344 12.947 46.8078 13.0409C46.2794 13.1276 45.6894 13.1893 45.0667 13.1999C44.4436 13.2054 43.8514 13.1589 43.32 13.0862C42.7898 13.006 42.3197 12.9038 41.9372 12.7895C41.554 12.6776 41.2514 12.5703 41.052 12.4812C40.8508 12.3949 40.7431 12.3426 40.749 12.3328C40.7642 12.3064 41.2135 12.4891 41.9799 12.6831C42.3624 12.7822 42.8277 12.8713 43.3494 12.9424C43.8725 13.006 44.4533 13.047 45.0637 13.0418C45.6742 13.0312 46.2527 12.975 46.7733 12.898C47.292 12.8135 47.7539 12.7123 48.1319 12.6034C48.8905 12.3897 49.3324 12.1954 49.3488 12.2213Z" fill="#263238"/>
<path d="M46.5816 12.225C46.5894 12.2648 45.602 12.4044 44.3733 12.3612C43.1439 12.3223 42.1744 12.1177 42.1859 12.0785C42.1967 12.0322 43.1703 12.1648 44.3811 12.2031C45.592 12.2457 46.5756 12.1785 46.5816 12.225Z" fill="#263238"/>
<path d="M5.57812 50.1295V25.4754H47.4614V50.1295L25.2639 50.2827L5.57812 50.1295Z" fill="#006970"/>
<g opacity="0.4">
<path d="M47.461 25.4754H5.57812V50.1295H47.461V25.4754Z" fill="black"/>
</g>
<path d="M25.2639 50.2827L5.57812 50.1295V25.4754H25.1994L25.2639 50.2827Z" fill="#006970"/>
<path d="M16.1912 25.4754H13.5793V29.7525H16.1912V25.4754Z" fill="#263238"/>
<path d="M12.1742 44.6886H6.97534V48.9453H12.1742V44.6886Z" fill="#FAFAFA"/>
<path d="M12.1836 48.953H6.96582V44.6811H12.1836V48.953ZM6.98477 48.9378H12.1647V44.6963H6.98477V48.9378Z" fill="#263238"/>
<path d="M57.2637 31.1352L58.1296 36.8737L45.1345 43.1893L47.1545 46.8292L61.9248 41.9434C63.7164 41.2007 65.2477 40.0995 65.1211 38.4504L64.4093 30.4234L57.2637 31.1352Z" fill="#FFBE9D"/>
<path d="M60.9223 19.8758C60.9223 19.8758 62.7711 20.9971 63.2939 23.332C63.7919 25.5554 65.4817 31.7679 65.4817 31.7679L56.5764 32.6311C56.5764 32.6311 56.5824 30.9252 56.5816 30.9239C56.5668 30.8996 55.7524 27.7204 55.7524 27.7204L57.4126 23.332L60.9223 19.8758Z" fill="#006970"/>
<path d="M65.1285 31.7953C65.13 31.8062 64.9135 31.8378 64.5199 31.8859C64.0933 31.9342 63.5311 31.9975 62.8523 32.0744C61.4432 32.2267 59.4949 32.4258 57.3416 32.6365C57.0835 32.6618 56.8284 32.6864 56.5882 32.7098L56.4883 32.7195L56.4809 32.6371C56.3327 31.0106 56.1686 29.5643 56.0475 28.5254C55.9893 28.0262 55.941 27.6143 55.9042 27.2996C55.8715 27.0114 55.8597 26.8524 55.8719 26.8508C55.8842 26.8496 55.9202 27.0062 55.9748 27.2926C56.0286 27.579 56.0984 27.9955 56.1768 28.5139C56.3324 29.5509 56.5191 30.996 56.6725 32.6259L56.5652 32.5532C56.8054 32.5295 57.0605 32.5046 57.3186 32.4793C59.4719 32.269 61.4227 32.0871 62.836 31.9634C63.5181 31.9072 64.0825 31.8603 64.511 31.8251C64.9072 31.7956 65.127 31.7843 65.1285 31.7953Z" fill="#263238"/>
<path d="M60.1938 20.2759C60.2065 20.3011 59.8704 20.4151 59.3762 20.6638C58.882 20.9107 58.2418 21.3135 57.6704 21.865C57.1015 22.4187 56.7235 23.0027 56.5085 23.443C56.2916 23.8835 56.2107 24.1735 56.178 24.1678C56.1583 24.1653 56.1921 23.8647 56.3804 23.4037C56.5664 22.9444 56.937 22.3326 57.5226 21.7629C58.1107 21.1953 58.7854 20.794 59.3075 20.5671C59.8311 20.3376 60.1875 20.2604 60.1938 20.2759Z" fill="#263238"/>
<path d="M44.9323 42.8684L43.0238 43.5844L42.205 43.3253L38.0403 43.1122L35.4321 43.5844L35.3575 43.7063C35.3575 44.864 38.0369 44.4071 38.8557 44.5898C39.6744 44.7725 38.93 46.2045 38.93 46.2045C38.93 46.2045 35.2457 50.135 34.6041 51.0796C34.2833 51.5518 34.3876 51.8108 34.5725 51.9519C34.7619 52.0963 35.0575 52.0954 35.2688 51.9728L36.6289 51.1845C36.6289 51.1845 40.3707 51.3627 40.6276 51.2587C40.9978 51.1088 41.5348 50.4703 41.5348 50.4703C43.4496 49.004 45.4187 47.7845 47.4606 46.8913L44.9323 42.8684Z" fill="#FAFAFA"/>
<path d="M44.9323 42.8683C44.9334 42.8659 44.9491 42.8875 44.9791 42.9313C45.0137 42.983 45.0575 43.0486 45.112 43.1304C45.2342 43.3183 45.4047 43.5801 45.6222 43.9142C46.0727 44.6159 46.7165 45.6195 47.5175 46.8682L47.5464 46.9131L47.4911 46.9375C45.7077 47.7219 43.6595 48.9295 41.5949 50.5229L41.6072 50.5113C41.3588 50.7874 41.1159 51.0717 40.7361 51.2933C40.69 51.321 40.6213 51.3395 40.5497 51.3489L40.3807 51.3599L40.0495 51.3657C39.8286 51.3672 39.6069 51.3635 39.3834 51.3593C38.4892 51.341 37.5676 51.3049 36.6241 51.2626L36.6842 51.2486C36.3928 51.418 36.0983 51.5885 35.8016 51.7609L35.3546 52.0202C35.1971 52.1224 34.9621 52.1729 34.7523 52.1224C34.5377 52.075 34.3698 51.9236 34.3208 51.7487C34.2733 51.573 34.3238 51.4025 34.3962 51.2538C34.5499 50.9522 34.7775 50.7071 34.9858 50.4454C36.2799 48.9182 37.6103 47.4978 38.8565 46.1592L38.8449 46.1756C38.9467 45.9697 39.0321 45.7542 39.0878 45.5405C39.1398 45.3285 39.1791 45.1051 39.1153 44.9145C39.0885 44.8166 39.0172 44.7454 38.9303 44.6965C38.8375 44.6569 38.7101 44.6369 38.5832 44.629C38.3284 44.6089 38.0666 44.6107 37.8086 44.6095C37.2924 44.6077 36.7797 44.6065 36.2829 44.5223C36.0393 44.4712 35.786 44.4149 35.5855 44.2705C35.3802 44.1301 35.284 43.9121 35.2773 43.7069L35.2769 43.692L35.2859 43.6774C35.3122 43.6348 35.3364 43.5953 35.3605 43.5557L35.3776 43.5278L35.4143 43.5211C36.3489 43.3548 37.2171 43.2 38.0243 43.0565L38.0344 43.0547L38.044 43.0553C39.7071 43.148 41.1037 43.2259 42.2069 43.2873L42.2147 43.2876L42.2213 43.2897C42.5418 43.3937 42.7995 43.477 43.0375 43.5539L43.0063 43.5548C43.6257 43.3311 44.1069 43.1575 44.4455 43.0353C44.5982 42.9814 44.7188 42.9392 44.8109 42.907C44.893 42.8787 44.9334 42.8656 44.9323 42.8683C44.9312 42.8711 44.8882 42.8896 44.8057 42.9231C44.7136 42.9599 44.5933 43.0079 44.4403 43.0687C44.111 43.197 43.6431 43.3794 43.0408 43.6144L43.026 43.6202L43.0096 43.615C42.7705 43.5412 42.511 43.4609 42.1887 43.3615L42.2028 43.3639C41.0985 43.3122 39.7008 43.2472 38.037 43.1696L38.0566 43.1684C37.2505 43.3168 36.3839 43.4761 35.4504 43.6479L35.5042 43.6135C35.48 43.653 35.4563 43.6929 35.4303 43.7354L35.4388 43.7062C35.4492 43.8829 35.5246 44.0519 35.6932 44.1678C35.8577 44.2875 36.0916 44.3411 36.32 44.3876C36.7904 44.4654 37.2951 44.4663 37.8108 44.466C38.0693 44.4666 38.3314 44.4633 38.6025 44.4836C38.7373 44.4934 38.8772 44.508 39.0228 44.5694C39.1572 44.639 39.2578 44.7542 39.2905 44.8737C39.3681 45.1127 39.3206 45.3459 39.2682 45.5712C39.2096 45.7974 39.1245 46.0157 39.0169 46.2346L39.0128 46.2428L39.005 46.2513C37.7648 47.5905 36.4351 49.0146 35.1477 50.5341C34.942 50.7907 34.7118 51.0449 34.5774 51.3119C34.5109 51.445 34.4756 51.5879 34.5102 51.7123C34.5443 51.8342 34.6613 51.9391 34.8061 51.9707C34.9543 52.0041 35.1154 51.9752 35.2454 51.8916L35.6928 51.6326C35.9899 51.4608 36.2843 51.2903 36.5762 51.1215L36.6033 51.1057L36.6363 51.1072C37.5773 51.1507 38.4989 51.1884 39.3889 51.2088C39.6114 51.2133 39.8323 51.2176 40.0499 51.2167L40.3733 51.2121L40.5281 51.2027C40.5638 51.1972 40.5994 51.1939 40.6421 51.1687C40.9678 50.9823 41.2288 50.6935 41.4646 50.4305L41.4713 50.4232L41.4772 50.4186C43.5585 48.8252 45.6289 47.6209 47.4328 46.8463L47.4064 46.9156C46.6382 45.6675 46.0207 44.6645 45.5888 43.9628C45.3805 43.6196 45.2171 43.3505 45.1002 43.1575C45.0486 43.0702 45.0073 43.0006 44.9743 42.9453C44.9453 42.8969 44.9312 42.8708 44.9323 42.8683Z" fill="#263238"/>
<path d="M40.156 48.5321C40.1891 48.5644 39.4056 49.1618 38.4357 49.8966C37.9496 50.2633 37.5063 50.5922 37.1803 50.826C36.8543 51.0601 36.6456 51.1982 36.63 51.1851C36.5865 51.1498 37.3314 50.515 38.305 49.7802C39.2764 49.0438 40.1207 48.4975 40.156 48.5321Z" fill="#263238"/>
<path d="M41.289 49.2925C41.3335 49.3211 40.872 49.8221 40.2073 50.3627C39.5478 50.9069 38.9634 51.3049 38.9274 51.273C38.8906 51.2407 39.4138 50.7929 40.0699 50.2511C40.7312 49.7133 41.2492 49.267 41.289 49.2925Z" fill="#263238"/>
</svg>
