<svg width="24" height="24" viewBox="0 0 24 24" fill="none" xmlns="http://www.w3.org/2000/svg">
<path d="M12.4122 10.587C12.3985 11.6666 13.3744 12.2691 14.1095 12.6273C14.8647 12.9948 15.1184 13.2305 15.1154 13.5592C15.1098 14.0621 14.513 14.2841 13.9545 14.2927C12.9802 14.3078 12.4136 14.0297 11.9633 13.8193L11.6122 15.4617C12.0641 15.6699 12.9008 15.8515 13.7685 15.8595C15.8052 15.8595 17.1377 14.8541 17.1449 13.2953C17.1529 11.317 14.4085 11.2075 14.4273 10.3233C14.4338 10.0552 14.6896 9.76903 15.2502 9.69628C15.5277 9.65953 16.2937 9.6314 17.1623 10.0313L17.5031 8.44228C17.0361 8.27222 16.4358 8.10937 15.6884 8.10937C13.7714 8.10937 12.4231 9.12843 12.4122 10.587ZM20.7786 8.24625C20.4067 8.24625 20.0933 8.46318 19.9534 8.79609L17.044 15.7428H19.0793L19.4842 14.6235H21.9713L22.2062 15.7428H24L22.4347 8.24625H20.7786ZM21.0633 10.2713L21.6506 13.0864H20.0421L21.0633 10.2713ZM9.94462 8.24634L8.34037 15.7427H10.2798L11.8833 8.24615H9.94462V8.24634ZM7.07559 8.24615L5.05697 13.3487L4.24041 9.01022C4.14459 8.5259 3.76622 8.24625 3.34603 8.24625H0.0462187L0 8.46393C0.677437 8.61093 1.44712 8.84803 1.91344 9.10172C2.19881 9.25668 2.28019 9.39215 2.37394 9.7604L3.92053 15.7428L5.97 15.7428L9.11213 8.24625L7.07559 8.24625" fill="url(#paint0_linear_159_52)"/>
<defs>
<linearGradient id="paint0_linear_159_52" x1="11.0338" y1="16.015" x2="11.2581" y2="8.05547" gradientUnits="userSpaceOnUse">
<stop stop-color="#222357"/>
<stop offset="1" stop-color="#254AA5"/>
</linearGradient>
</defs>
</svg>
